<?xml version="1.0" standalone="no"?>
<!DOCTYPE svg PUBLIC "-//W3C//DTD SVG 20010904//EN"
 "http://www.w3.org/TR/2001/REC-SVG-20010904/DTD/svg10.dtd">
<svg version="1.0" xmlns="http://www.w3.org/2000/svg"
 width="96.000000pt" height="96.000000pt" viewBox="0 0 96.000000 96.000000"
 preserveAspectRatio="xMidYMid meet">
<metadata>
Created by potrace 1.10, written by Peter Selinger 2001-2011
</metadata>
<g transform="translate(0.000000,96.000000) scale(0.100000,-0.100000)"
fill="#000000" stroke="none">
<path d="M820 900 c0 -16 7 -20 31 -20 l30 0 -41 -59 c-23 -33 -39 -64 -35
-70 3 -6 31 -11 61 -11 47 0 54 2 54 20 0 16 -7 20 -31 20 l-30 0 41 59 c23
33 39 64 35 70 -3 6 -31 11 -61 11 -47 0 -54 -2 -54 -20z"/>
<path d="M381 864 c-204 -55 -329 -248 -292 -451 40 -219 244 -363 457 -324
172 31 293 152 325 324 21 112 -15 244 -86 321 -19 20 -23 32 -16 39 23 23 11
37 -28 37 -23 0 -56 9 -76 22 -44 25 -134 48 -190 47 -22 0 -64 -7 -94 -15z
m184 -24 c60 -16 115 -43 115 -57 0 -7 8 -13 18 -13 14 0 15 2 2 10 -21 13 -7
22 25 14 21 -5 26 -11 22 -30 -2 -14 0 -21 6 -17 5 3 7 0 5 -8 -3 -8 -10 -13
-16 -12 -5 1 -16 -4 -22 -12 -10 -12 -9 -16 4 -21 8 -3 21 -4 28 -1 7 3 3 6
-10 6 -13 1 -21 5 -17 11 7 11 37 1 48 -17 5 -7 12 -11 18 -8 5 4 9 1 9 -5 0
-7 6 -26 14 -43 64 -141 39 -295 -68 -414 -57 -64 -173 -113 -265 -113 -326 1
-490 389 -267 628 84 90 231 133 351 102z"/>
<path d="M246 511 c-16 -26 38 -71 84 -71 29 0 76 26 84 46 12 30 -10 38 -40
15 -33 -26 -54 -27 -87 -1 -28 23 -33 24 -41 11z"/>
<path d="M546 511 c-16 -26 38 -71 84 -71 29 0 76 26 84 46 12 30 -10 38 -40
15 -33 -26 -54 -27 -87 -1 -28 23 -33 24 -41 11z"/>
<path d="M439 279 c-35 -35 -22 -54 41 -54 43 0 55 3 58 17 4 22 -32 58 -58
58 -11 0 -29 -9 -41 -21z"/>
</g>
</svg>
